<svg width="108" height="32" viewBox="0 0 108 32" fill="none" xmlns="http://www.w3.org/2000/svg">
<path fill-rule="evenodd" clip-rule="evenodd" d="M21.379 16.7149C21.3819 14.2479 20.6612 12.2769 19.2171 10.802C17.7349 9.34002 15.8348 8.5982 13.4405 8.5982C10.1596 8.5982 7.66402 10.2944 5.91164 13.6825V0H0V31.2346H5.91164V19.4436C5.91164 17.474 7.87515 16.1422 10.869 16.1422C13.6728 16.1422 15.4674 17.3916 15.4674 19.3611V31.2346H21.379V16.7149ZM45.5492 9.11011H39.6376L39.6249 21.2179C39.6181 22.1238 39.133 22.9545 38.3581 23.3869C37.3567 23.9764 36.2133 24.2622 35.0602 24.2112C32.5267 24.2112 30.8376 23.0442 30.8376 21.309V9.11011H24.926V23.6993C24.926 26.133 25.6523 28.0678 27.0373 29.5471C28.4223 31.0264 30.2549 31.7682 32.5014 31.7682C35.5965 31.7466 37.9485 30.1371 39.6376 26.8965V31.2347H45.5492V9.11011ZM80.4279 10.7413C81.7285 12.1815 82.3661 14.086 82.3661 16.4589V31.2347H76.4544V18.8319C76.4544 17.2224 74.9259 16.1422 72.7217 16.1422C70.3063 16.1422 68.6806 17.3049 68.6806 18.9143V31.2347H62.769V18.8319C62.769 17.2224 61.2657 16.1422 59.0573 16.1422C56.6462 16.1422 54.9994 17.3049 54.9994 18.9143V31.2347H49.0878V9.11011H54.9994V13.2661C56.5871 10.1513 58.7997 8.58086 61.6373 8.58086C64.6221 8.47809 67.3089 10.4282 68.2119 13.3528C69.901 10.1773 72.2361 8.58086 75.3059 8.58086C77.2372 8.50479 79.1058 9.29291 80.4279 10.7413ZM107.334 9.1101H101.423V12.919C99.79 10.05 97.4253 8.61555 94.3288 8.61555C91.552 8.55835 88.8935 9.76905 87.0701 11.9212C85.1108 14.1293 84.1438 16.858 84.1438 20.1637C84.1438 23.4693 85.1108 26.2241 87.0701 28.4495C88.8868 30.6131 91.5481 31.8315 94.3288 31.7726C97.4239 31.7726 99.7928 30.3323 101.423 27.4735V31.2346H107.334V9.1101ZM99.835 23.0659C98.6569 23.8658 97.2643 24.2663 95.8531 24.2112C94.4365 24.268 93.0381 23.8674 91.8543 23.0659C90.8765 22.4518 90.2763 21.3628 90.2666 20.1854C90.2666 19.0184 90.8029 18.0684 91.8543 17.2832C94.3084 15.7617 97.3809 15.7617 99.835 17.2832C100.886 18.0684 101.423 19.0228 101.423 20.1854C101.413 21.3628 100.813 22.4518 99.835 23.0659Z" fill="#2C2012"/>
</svg>
